<svg width="512" height="512" viewBox="0 0 512 512" fill="none" xmlns="http://www.w3.org/2000/svg">
<rect width="512" height="512" rx="256" fill="white"/>
<path d="M433.384 414.393C419.222 418.39 406.599 420.543 395.515 420.543C358.569 420.543 333.631 393.484 321.007 339.06H319.468C288.988 397.789 246.192 427 192.313 427C151.98 427 119.653 411.933 95.33 381.492C71.0074 351.051 59 312.923 59 266.801C59 212.991 72.8547 169.943 100.256 136.427C127.658 102.912 164.911 86 212.017 86C237.264 86 260.047 93.0721 279.751 106.909C299.456 121.053 314.542 140.732 325.01 166.253H326.241L348.101 92.4572H426.919L361.032 256.039C368.421 294.167 376.118 320.303 384.739 334.14C392.128 347.977 402.596 355.049 415.527 355.049C422.916 355.049 428.766 353.819 434 351.666L433.384 414.393ZM302.227 253.271C295.761 218.526 285.293 191.467 271.131 173.018C257.276 154.261 240.342 145.037 220.946 145.037C195.7 145.037 175.379 156.414 160.293 178.86C145.207 201.614 138.433 229.595 138.433 262.496C138.433 292.629 144.283 317.536 157.522 337.83C170.453 358.124 188.002 367.963 209.862 367.963C228.335 367.963 245.268 359.046 260.355 342.134C275.749 324.608 288.372 299.087 298.532 265.571L302.227 253.271Z" fill="#00BBA7"/>
</svg>
