<svg width="1844" height="421" viewBox="0 0 1844 421" fill="none" xmlns="http://www.w3.org/2000/svg">
<g clip-path="url(#clip0_27_33)">
<rect width="1844" height="421" fill="white"/>
<path d="M588.084 314.12C565.215 314.12 544.735 308.488 526.644 297.224C508.895 285.96 494.729 270.6 484.148 251.144C473.908 231.688 468.788 209.501 468.788 184.584C468.788 159.667 473.908 137.48 484.148 118.024C494.729 98.568 508.895 83.208 526.644 71.944C544.735 60.68 565.215 55.048 588.084 55.048C604.809 55.048 619.828 58.2907 633.14 64.776C646.793 71.2613 657.887 80.3067 666.42 91.912C674.953 103.176 679.732 116.147 680.756 130.824V238.344C679.732 253.021 674.953 266.163 666.42 277.768C658.228 289.032 647.305 297.907 633.652 304.392C619.999 310.877 604.809 314.12 588.084 314.12ZM603.956 243.464C620.681 243.464 634.164 238.003 644.404 227.08C654.644 215.816 659.764 201.651 659.764 184.584C659.764 172.979 657.375 162.739 652.596 153.864C648.159 144.989 641.673 138.163 633.14 133.384C624.948 128.264 615.391 125.704 604.468 125.704C593.545 125.704 583.817 128.264 575.284 133.384C567.092 138.163 560.436 144.989 555.316 153.864C550.537 162.739 548.148 172.979 548.148 184.584C548.148 195.848 550.537 205.917 555.316 214.792C560.095 223.667 566.751 230.664 575.284 235.784C583.817 240.904 593.375 243.464 603.956 243.464ZM656.692 309V241.928L668.468 181.512L656.692 121.096V60.168H733.492V309H656.692ZM894.12 420.616C866.813 420.616 842.749 415.837 821.928 406.28C801.448 397.064 785.235 383.923 773.288 366.856L821.416 318.728C830.291 329.309 840.189 337.331 851.112 342.792C862.376 348.253 875.859 350.984 891.56 350.984C911.016 350.984 926.205 346.205 937.128 336.648C948.392 327.091 954.024 313.608 954.024 296.2V232.712L967.336 178.44L955.56 124.168V60.168H1032.36V294.152C1032.36 319.752 1026.39 341.939 1014.44 360.712C1002.49 379.485 986.109 394.163 965.288 404.744C944.467 415.325 920.744 420.616 894.12 420.616ZM890.536 301.32C867.667 301.32 847.357 295.859 829.608 284.936C811.859 274.013 797.864 259.165 787.624 240.392C777.384 221.619 772.264 200.797 772.264 177.928C772.264 154.717 777.384 133.896 787.624 115.464C797.864 96.6907 811.859 82.0133 829.608 71.432C847.357 60.5093 867.667 55.048 890.536 55.048C907.603 55.048 922.792 58.2907 936.104 64.776C949.757 70.92 960.68 79.7947 968.872 91.4C977.405 102.664 982.184 115.805 983.208 130.824V225.544C982.184 240.221 977.405 253.363 968.872 264.968C960.68 276.232 949.757 285.107 936.104 291.592C922.451 298.077 907.261 301.32 890.536 301.32ZM905.384 231.688C916.307 231.688 925.693 229.299 933.544 224.52C941.736 219.741 947.88 213.427 951.976 205.576C956.413 197.384 958.632 188.168 958.632 177.928C958.632 167.688 956.413 158.472 951.976 150.28C947.88 142.088 941.736 135.603 933.544 130.824C925.693 126.045 916.307 123.656 905.384 123.656C894.803 123.656 885.416 126.045 877.224 130.824C869.032 135.603 862.717 142.088 858.28 150.28C853.843 158.472 851.624 167.688 851.624 177.928C851.624 187.485 853.843 196.531 858.28 205.064C862.717 213.256 868.861 219.741 876.712 224.52C884.904 229.299 894.461 231.688 905.384 231.688ZM1207.46 314.632C1181.86 314.632 1158.65 309 1137.82 297.736C1117.34 286.131 1101.13 270.429 1089.18 250.632C1077.24 230.835 1071.26 208.648 1071.26 184.072C1071.26 159.496 1077.24 137.48 1089.18 118.024C1101.13 98.568 1117.34 83.208 1137.82 71.944C1158.3 60.3387 1181.51 54.536 1207.46 54.536C1233.4 54.536 1256.61 60.168 1277.09 71.432C1297.57 82.696 1313.78 98.2267 1325.73 118.024C1337.67 137.48 1343.65 159.496 1343.65 184.072C1343.65 208.648 1337.67 230.835 1325.73 250.632C1313.78 270.429 1297.57 286.131 1277.09 297.736C1256.61 309 1233.4 314.632 1207.46 314.632ZM1207.46 243.464C1218.72 243.464 1228.62 241.075 1237.15 236.296C1245.69 231.176 1252.17 224.179 1256.61 215.304C1261.39 206.088 1263.78 195.677 1263.78 184.072C1263.78 172.467 1261.39 162.397 1256.61 153.864C1251.83 144.989 1245.17 138.163 1236.64 133.384C1228.45 128.264 1218.72 125.704 1207.46 125.704C1196.53 125.704 1186.81 128.264 1178.27 133.384C1169.74 138.163 1163.08 144.989 1158.3 153.864C1153.53 162.739 1151.14 172.979 1151.14 184.584C1151.14 195.848 1153.53 206.088 1158.3 215.304C1163.08 224.179 1169.74 231.176 1178.27 236.296C1186.81 241.075 1196.53 243.464 1207.46 243.464ZM1382.65 309V60.168H1460.98V309H1382.65ZM1460.98 172.296L1428.22 146.696C1434.7 117.683 1445.62 95.1547 1460.98 79.112C1476.34 63.0693 1497.68 55.048 1524.98 55.048C1536.93 55.048 1547.34 56.9253 1556.22 60.68C1565.43 64.0933 1573.45 69.5547 1580.28 77.064L1533.69 135.944C1530.27 132.189 1526.01 129.288 1520.89 127.24C1515.77 125.192 1509.97 124.168 1503.48 124.168C1490.51 124.168 1480.1 128.264 1472.25 136.456C1464.74 144.307 1460.98 156.253 1460.98 172.296ZM1698.08 314.12C1675.21 314.12 1654.73 308.488 1636.64 297.224C1618.89 285.96 1604.73 270.6 1594.15 251.144C1583.91 231.688 1578.79 209.501 1578.79 184.584C1578.79 159.667 1583.91 137.48 1594.15 118.024C1604.73 98.568 1618.89 83.208 1636.64 71.944C1654.73 60.68 1675.21 55.048 1698.08 55.048C1714.81 55.048 1729.83 58.2907 1743.14 64.776C1756.79 71.2613 1767.89 80.3067 1776.42 91.912C1784.95 103.176 1789.73 116.147 1790.76 130.824V238.344C1789.73 253.021 1784.95 266.163 1776.42 277.768C1768.23 289.032 1757.31 297.907 1743.65 304.392C1730 310.877 1714.81 314.12 1698.08 314.12ZM1713.96 243.464C1730.68 243.464 1744.16 238.003 1754.4 227.08C1764.64 215.816 1769.76 201.651 1769.76 184.584C1769.76 172.979 1767.37 162.739 1762.6 153.864C1758.16 144.989 1751.67 138.163 1743.14 133.384C1734.95 128.264 1725.39 125.704 1714.47 125.704C1703.55 125.704 1693.82 128.264 1685.28 133.384C1677.09 138.163 1670.44 144.989 1665.32 153.864C1660.54 162.739 1658.15 172.979 1658.15 184.584C1658.15 195.848 1660.54 205.917 1665.32 214.792C1670.09 223.667 1676.75 230.664 1685.28 235.784C1693.82 240.904 1703.37 243.464 1713.96 243.464ZM1766.69 309V241.928L1778.47 181.512L1766.69 121.096V60.168H1843.49V309H1766.69Z" fill="#222222"/>
<path d="M340.442 319.539C327.601 323.173 316.156 325.13 306.107 325.13C272.609 325.13 249.998 300.531 238.553 251.054H237.158C209.522 304.445 170.721 331 121.87 331C85.3021 331 55.9918 317.303 33.9392 289.629C11.8867 261.956 1 227.294 1 185.364C1 136.446 13.5616 97.312 38.4056 66.8431C63.2496 36.3742 97.0263 21 139.736 21C162.626 21 183.282 27.4292 201.148 40.0081C219.013 52.8665 232.691 70.7565 242.182 93.9576H243.299L263.118 26.8701H334.58L274.842 175.581C281.542 210.243 288.521 234.003 296.337 246.582C303.036 259.161 312.527 265.59 324.251 265.59C330.951 265.59 336.255 264.472 341 262.515L340.442 319.539ZM221.525 173.065C215.663 141.478 206.172 116.879 193.332 100.107C180.77 83.0559 165.417 74.67 147.831 74.67C124.941 74.67 106.517 85.0126 92.8391 105.418C79.1609 126.104 73.0197 151.541 73.0197 181.451C73.0197 208.845 78.3235 231.487 90.3268 249.936C102.051 268.385 117.962 277.33 137.782 277.33C154.53 277.33 169.883 269.224 183.562 253.849C197.519 237.916 208.964 214.715 218.176 184.246L221.525 173.065Z" fill="#00BBA7"/>
</g>
<defs>
<clipPath id="clip0_27_33">
<rect width="1844" height="421" fill="white"/>
</clipPath>
</defs>
</svg>
