<svg width="1863" height="406" viewBox="0 0 1863 406" fill="none" xmlns="http://www.w3.org/2000/svg">
<g clip-path="url(#clip0_27_33)">
<rect width="1863" height="406" fill="white"/>
<path d="M588.084 292.12C565.215 292.12 544.735 286.488 526.644 275.224C508.895 263.96 494.729 248.6 484.148 229.144C473.908 209.688 468.788 187.501 468.788 162.584C468.788 137.667 473.908 115.48 484.148 96.024C494.729 76.568 508.895 61.208 526.644 49.944C544.735 38.68 565.215 33.048 588.084 33.048C604.809 33.048 619.828 36.2907 633.14 42.776C646.793 49.2613 657.887 58.3067 666.42 69.912C674.953 81.176 679.732 94.1467 680.756 108.824V216.344C679.732 231.021 674.953 244.163 666.42 255.768C658.228 267.032 647.305 275.907 633.652 282.392C619.999 288.877 604.809 292.12 588.084 292.12ZM603.956 221.464C620.681 221.464 634.164 216.003 644.404 205.08C654.644 193.816 659.764 179.651 659.764 162.584C659.764 150.979 657.375 140.739 652.596 131.864C648.159 122.989 641.673 116.163 633.14 111.384C624.948 106.264 615.391 103.704 604.468 103.704C593.545 103.704 583.817 106.264 575.284 111.384C567.092 116.163 560.436 122.989 555.316 131.864C550.537 140.739 548.148 150.979 548.148 162.584C548.148 173.848 550.537 183.917 555.316 192.792C560.095 201.667 566.751 208.664 575.284 213.784C583.817 218.904 593.375 221.464 603.956 221.464ZM656.692 287V219.928L668.468 159.512L656.692 99.096V38.168H733.492V287H656.692ZM894.12 398.616C866.813 398.616 842.749 393.837 821.928 384.28C801.448 375.064 785.235 361.923 773.288 344.856L821.416 296.728C830.291 307.309 840.189 315.331 851.112 320.792C862.376 326.253 875.859 328.984 891.56 328.984C911.016 328.984 926.205 324.205 937.128 314.648C948.392 305.091 954.024 291.608 954.024 274.2V210.712L967.336 156.44L955.56 102.168V38.168H1032.36V272.152C1032.36 297.752 1026.39 319.939 1014.44 338.712C1002.49 357.485 986.109 372.163 965.288 382.744C944.467 393.325 920.744 398.616 894.12 398.616ZM890.536 279.32C867.667 279.32 847.357 273.859 829.608 262.936C811.859 252.013 797.864 237.165 787.624 218.392C777.384 199.619 772.264 178.797 772.264 155.928C772.264 132.717 777.384 111.896 787.624 93.464C797.864 74.6907 811.859 60.0133 829.608 49.432C847.357 38.5093 867.667 33.048 890.536 33.048C907.603 33.048 922.792 36.2907 936.104 42.776C949.757 48.92 960.68 57.7947 968.872 69.4C977.405 80.664 982.184 93.8053 983.208 108.824V203.544C982.184 218.221 977.405 231.363 968.872 242.968C960.68 254.232 949.757 263.107 936.104 269.592C922.451 276.077 907.261 279.32 890.536 279.32ZM905.384 209.688C916.307 209.688 925.693 207.299 933.544 202.52C941.736 197.741 947.88 191.427 951.976 183.576C956.413 175.384 958.632 166.168 958.632 155.928C958.632 145.688 956.413 136.472 951.976 128.28C947.88 120.088 941.736 113.603 933.544 108.824C925.693 104.045 916.307 101.656 905.384 101.656C894.803 101.656 885.416 104.045 877.224 108.824C869.032 113.603 862.717 120.088 858.28 128.28C853.843 136.472 851.624 145.688 851.624 155.928C851.624 165.485 853.843 174.531 858.28 183.064C862.717 191.256 868.861 197.741 876.712 202.52C884.904 207.299 894.461 209.688 905.384 209.688ZM1207.46 292.632C1181.86 292.632 1158.65 287 1137.82 275.736C1117.34 264.131 1101.13 248.429 1089.18 228.632C1077.24 208.835 1071.26 186.648 1071.26 162.072C1071.26 137.496 1077.24 115.48 1089.18 96.024C1101.13 76.568 1117.34 61.208 1137.82 49.944C1158.3 38.3387 1181.51 32.536 1207.46 32.536C1233.4 32.536 1256.61 38.168 1277.09 49.432C1297.57 60.696 1313.78 76.2267 1325.73 96.024C1337.67 115.48 1343.65 137.496 1343.65 162.072C1343.65 186.648 1337.67 208.835 1325.73 228.632C1313.78 248.429 1297.57 264.131 1277.09 275.736C1256.61 287 1233.4 292.632 1207.46 292.632ZM1207.46 221.464C1218.72 221.464 1228.62 219.075 1237.15 214.296C1245.69 209.176 1252.17 202.179 1256.61 193.304C1261.39 184.088 1263.78 173.677 1263.78 162.072C1263.78 150.467 1261.39 140.397 1256.61 131.864C1251.83 122.989 1245.17 116.163 1236.64 111.384C1228.45 106.264 1218.72 103.704 1207.46 103.704C1196.53 103.704 1186.81 106.264 1178.27 111.384C1169.74 116.163 1163.08 122.989 1158.3 131.864C1153.53 140.739 1151.14 150.979 1151.14 162.584C1151.14 173.848 1153.53 184.088 1158.3 193.304C1163.08 202.179 1169.74 209.176 1178.27 214.296C1186.81 219.075 1196.53 221.464 1207.46 221.464ZM1382.65 287V38.168H1460.98V287H1382.65ZM1460.98 150.296L1428.22 124.696C1434.7 95.6827 1445.62 73.1547 1460.98 57.112C1476.34 41.0693 1497.68 33.048 1524.98 33.048C1536.93 33.048 1547.34 34.9253 1556.22 38.68C1565.43 42.0933 1573.45 47.5547 1580.28 55.064L1533.69 113.944C1530.27 110.189 1526.01 107.288 1520.89 105.24C1515.77 103.192 1509.97 102.168 1503.48 102.168C1490.51 102.168 1480.1 106.264 1472.25 114.456C1464.74 122.307 1460.98 134.253 1460.98 150.296ZM1698.08 292.12C1675.21 292.12 1654.73 286.488 1636.64 275.224C1618.89 263.96 1604.73 248.6 1594.15 229.144C1583.91 209.688 1578.79 187.501 1578.79 162.584C1578.79 137.667 1583.91 115.48 1594.15 96.024C1604.73 76.568 1618.89 61.208 1636.64 49.944C1654.73 38.68 1675.21 33.048 1698.08 33.048C1714.81 33.048 1729.83 36.2907 1743.14 42.776C1756.79 49.2613 1767.89 58.3067 1776.42 69.912C1784.95 81.176 1789.73 94.1467 1790.76 108.824V216.344C1789.73 231.021 1784.95 244.163 1776.42 255.768C1768.23 267.032 1757.31 275.907 1743.65 282.392C1730 288.877 1714.81 292.12 1698.08 292.12ZM1713.96 221.464C1730.68 221.464 1744.16 216.003 1754.4 205.08C1764.64 193.816 1769.76 179.651 1769.76 162.584C1769.76 150.979 1767.37 140.739 1762.6 131.864C1758.16 122.989 1751.67 116.163 1743.14 111.384C1734.95 106.264 1725.39 103.704 1714.47 103.704C1703.55 103.704 1693.82 106.264 1685.28 111.384C1677.09 116.163 1670.44 122.989 1665.32 131.864C1660.54 140.739 1658.15 150.979 1658.15 162.584C1658.15 173.848 1660.54 183.917 1665.32 192.792C1670.09 201.667 1676.75 208.664 1685.28 213.784C1693.82 218.904 1703.37 221.464 1713.96 221.464ZM1766.69 287V219.928L1778.47 159.512L1766.69 99.096V38.168H1843.49V287H1766.69Z" fill="#222222"/>
<path d="M350.425 308.206C337.207 311.946 325.425 313.959 315.08 313.959C280.598 313.959 257.322 288.647 245.54 237.733H244.103C215.655 292.674 175.713 320 125.425 320C87.7816 320 57.6092 305.905 34.908 277.428C12.2069 248.951 1 213.283 1 170.136C1 119.798 13.931 79.5275 39.5058 48.174C65.0805 16.8206 99.8506 1 143.816 1C167.379 1 188.644 7.61585 207.034 20.5599C225.425 33.7917 239.506 52.2011 249.276 76.0757H250.425L270.828 7.04057H344.391L282.897 160.069C289.793 195.737 296.977 220.187 305.023 233.131C311.92 246.075 321.69 252.691 333.759 252.691C340.655 252.691 346.115 251.54 351 249.527L350.425 308.206ZM228.011 157.48C221.977 124.976 212.207 99.6627 198.989 82.404C186.057 64.8575 170.253 56.2281 152.149 56.2281C128.586 56.2281 109.621 66.8711 95.5402 87.8693C81.4598 109.155 75.1379 135.331 75.1379 166.109C75.1379 194.298 80.5977 217.598 92.954 236.583C105.023 255.567 121.402 264.772 141.805 264.772C159.046 264.772 174.851 256.43 188.931 240.61C203.299 224.214 215.08 200.339 224.563 168.986L228.011 157.48Z" fill="#00BBA7"/>
</g>
<defs>
<clipPath id="clip0_27_33">
<rect width="1863" height="406" fill="white"/>
</clipPath>
</defs>
</svg>
